<?xml version="1.0" encoding="UTF-8"?>
<!DOCTYPE svg  PUBLIC '-//W3C//DTD SVG 1.1//EN'  'http://www.w3.org/Graphics/SVG/1.1/DTD/svg11.dtd'>
<svg version="1.1" viewBox="0 0 300 300" xmlns="http://www.w3.org/2000/svg">
<path d="m141.6 11.139c1.428-0.057 2.436 1.25 2.476 2.508 0.059 1.436-1.004 2.562-2.458 2.615-1.308 0.047-2.496-1.12-2.549-2.502-0.029-0.7 0.221-1.358 0.702-1.843 0.473-0.471 1.119-0.754 1.829-0.778m6.568-0.248c-1.458 0.057-2.553 1.208-2.506 2.625 0.051 1.226 1.107 2.552 2.559 2.503 1.481-0.06 2.515-1.176 2.456-2.659-0.045-1.234-1.067-2.52-2.509-2.469m98.364 227.13c2.244-0.138 4.519-1.448 6.248-3.581 0.338-0.42 0.67-0.884 0.968-1.392 0.935-1.594 1.474-3.579 1.222-5.506 0.521 0.423 1.596 1.291 1.596 1.291l3.222-4.521-0.388-0.419c-1.347 0.791-2.76-0.449-3.937-1.417l-11.267-9.097c-1.21-0.954-3.42-2.569-2.923-4.048l-0.417-0.227-3.935 5.514 0.362 0.395c1.324-0.775 3.039 0.68 4.219 1.649l8.768 7.097c1.057 0.847 1.669 1.335 1.972 2.481 0.499 1.76 0.026 3.773-1.281 5.386-1.014 1.26-2.151 1.958-3.394 2.095-1.544 0.167-3.302-0.539-5.218-2.095l-7.83-6.318c-1.2-0.946-2.998-2.326-2.524-3.785l-0.441-0.26-4.648 4.945 0.296 0.339c1.248-0.706 3.223 0.891 4.604 2.035l7.869 6.36c2.167 1.76 4.033 3.256 6.857 3.079m-65.201-216.14c1.111 0.87 0.646 2.81 0.175 4.509l-3.815 14.039c-0.461 1.6-0.918 3.707-2.431 3.823l-0.083 0.521 6.59 1.79 0.2-0.464c-1.24-0.9-0.572-3.055-0.175-4.557l3.797-13.976c0.387-1.488 0.919-3.705 2.451-3.857l0.066-0.523-6.574-1.784-0.201 0.479m100.37 119.94c-0.488 1.318-2.483 1.456-4.252 1.511l-14.53 0.571c-1.666 0.038-3.808 0.239-4.38-1.167l-0.521 0.072 0.269 6.815 0.494 0.065c0.493-1.457 2.745-1.468 4.3-1.537l14.476-0.569c1.538-0.077 3.813-0.233 4.414 1.185l0.521-0.098-0.275-6.808-0.516-0.04m-226.67-65.502c0.445-0.559 3.476-4.23 3.939-4.784-0.703-0.233-6.909-2.274-8.081-2.663 0.599 1.078 3.782 6.804 4.142 7.447m20.264-4.553l-5.406 5.506-0.446-0.275c0.11-0.396 0.075-0.755 0.021-0.973-0.156-0.623-0.488-0.796-2.078-1.317l-5.388-1.8-5.488 6.657s2.612 4.479 2.612 4.485c0.589 1.029 1.188 1.888 1.778 2.047 0.329 0.086 0.744 0.155 1.254-0.141l0.353 0.335-3.842 5.63-0.454-0.239c0.413-1.643-0.671-3.336-1.951-5.898 0 0-8.008-14.622-8.106-14.786-1.301-2.305-2.526-1.634-2.526-1.634l-0.317-0.435 3.608-4.443 19.781 6.211c2.37 0.659 4.497 1.455 6.321 0.659l0.274 0.411zm154.43 185.21c-2.025 0.515-3.761 0.173-8.248-1.463 0 0-6.918-2.487-7.576-2.747 1.891-1.911 3.03-5.511 1.367-8.188-1.95-3.142-5.782-3.75-9.836-1.36l-7.47 4.082 0.176 0.47c1.521-0.27 2.562 1.483 3.349 2.872l7.105 13.354c0.763 1.58 1.553 3.016 0.574 4.183l0.363 0.341 6.064-3.321-0.129-0.467c-1.52 0.294-2.305-1.238-3.237-2.941l-7.804-14.568 1.802-1.095c1.483-0.903 4.176-1.556 5.592 0.984 1.666 2.995-0.933 5.769-2.68 7.19l-0.226 0.188 11.48 4.547c2.311 0.851 4.628 0.498 7.101-0.417l2.415-1.176-0.182-0.468m8.145-8.365c-1.944 0.335-2.837-0.754-4.12-2.268 0 0-10.084-11.903-10.461-12.34 0.364-0.315 2.233-1.897 2.233-1.897 1.219-1.037 2.297-1.46 3.085-1.033l0.336-0.337-2.063-4.367s-0.539 1.018-1.339 1.745c-0.807 0.728-10.286 8.775-10.89 9.245-0.613 0.467-1.595 0.743-1.595 0.743l1.942 4.368 0.436-0.021s0.348-1.929 2.421-3.838l2.182-1.85 10.486 12.342c0.932 1.084 2.334 2.658 1.844 3.947-0.03 0.075-0.069 0.236-0.125 0.308l0.419 0.32 5.457-4.604-0.248-0.463m-59.886 30.504c-1.851-0.668-2.099-2.057-2.464-4.001 0 0-2.941-15.325-3.052-15.893 0.487-0.093 2.884-0.551 2.884-0.551 1.568-0.298 2.72-0.146 3.192 0.614l0.459-0.118 0.347-4.826s-0.962 0.629-2.015 0.865c-1.061 0.239-13.277 2.58-14.039 2.693-0.754 0.104-1.747-0.135-1.747-0.135l-0.46 4.757 0.403 0.201s1.241-1.511 3.982-2.16l2.815-0.536 3.055 15.898c0.285 1.415 0.722 3.468-0.332 4.35-0.066 0.049-0.183 0.165-0.26 0.213l0.206 0.473 7.012-1.316 0.014-0.528m-120.5-186.2c-1.712 0.979-2.926 0.255-4.65-0.724 0 0-13.551-7.743-14.045-8.031 0.241-0.427 1.452-2.546 1.452-2.546 0.799-1.393 1.665-2.157 2.549-2.029l0.201-0.424-3.43-3.409s-0.152 1.145-0.66 2.104c-0.51 0.959-6.679 11.755-7.093 12.402-0.404 0.646-1.235 1.245-1.235 1.245l3.315 3.447 0.411-0.179s-0.508-1.7 0.954-4.431l1.425-2.48 14.053 8.027c1.263 0.7 3.292 1.541 2.996 3.56 0 0.031 0.5 0.159 0.5 0.159l3.644-6.334-0.387-0.357m41.376-38.789c-1.979-0.019-2.661-1.248-3.657-2.966 0 0-7.816-13.506-8.105-14.005 0.427-0.248 2.543-1.47 2.543-1.47 1.382-0.801 2.519-1.028 3.214-0.467l0.392-0.263-1.251-4.676s-0.712 0.913-1.634 1.487c-0.918 0.571-11.673 6.798-12.354 7.155-0.683 0.358-1.696 0.455-1.696 0.455l1.128 4.644 0.439 0.053s0.431-1.721 3.052-3.351l2.486-1.433 8.112 14.009c0.739 1.239 2.067 2.986 0.799 4.582-0.015 0.022 0.358 0.395 0.358 0.395l6.325-3.646-0.151-0.503m10.552-30.125l0.081 0.489c1.53 0.029 2.265 2.199 2.765 3.644l3.488 10.727c0.401 1.349 0.73 2.007 0.389 3.149-0.474 1.758-1.783 3.154-3.738 3.881-2.955 1.095-5.196 0.809-7.15-4.045l-3.606-9.896c-0.536-1.43-1.352-3.551-0.186-4.544l-0.248-0.458-6.374 2.675 0.103 0.542c1.546 0.02 2.169 1.66 2.684 3.165l3.751 9.97c2.718 7.477 6.786 7.548 11.128 5.936 2.041-0.755 4.252-2.304 5.309-4.631 0.239 0.655 0.672 1.866 0.672 1.866l5.386-1.468-0.102-0.47c-1.735-0.129-2.415-2.634-2.92-4.076l-4.572-13.725c-0.539-1.445-1.271-3.252-0.078-4.262l-0.239-0.419-6.543 1.95m39.889-6.306l-0.065 0.487c1.449 0.492 1.492 2.78 1.528 4.312l0.096 11.278c-0.024 1.403 0.092 2.133-0.569 3.115-0.996 1.537-2.659 2.477-4.742 2.574-3.142 0.164-5.203-0.796-5.591-6l-0.462-10.534c-0.071-1.523-0.216-3.78 1.19-4.384l-0.092-0.511-6.886 0.628-0.066 0.552c1.467 0.479 1.562 2.236 1.604 3.822l0.568 10.64c0.342 7.946 4.195 9.243 8.817 9.012 2.183-0.104 4.755-0.916 6.473-2.813 0.021 0.691 0.074 1.981 0.074 1.981l5.584 0.227 0.042-0.478c-1.625-0.652-1.518-3.235-1.559-4.77l-0.222-14.464c-0.082-1.54-0.232-3.483 1.203-4.086l-0.099-0.473-6.826-0.115m25.929 21.588c-2.148 1.395-4.363 1.555-6.571 1.11l-4.51-0.951 2.235-15.738c0.195-1.518 0.455-3.947 1.967-4.276l-9e-3 -0.509-6.79-0.79-0.106 0.508c1.376 0.749 0.966 2.995 0.724 4.516l-2.048 14.333c-0.196 1.528-0.428 3.794-1.949 4.102l-0.031 0.518 14.803 2.11 2.638-4.668-0.353-0.265m78.381 64.108c-2.401-0.865-3.866-2.54-4.841-4.569l-1.97-4.17 13.907-7.714c1.319-0.67 3.414-2.019 4.59-1.012l0.398-0.32-3.471-5.883-0.461 0.213c0.229 1.552-1.8 2.519-3.168 3.309l-12.654 7.02c-1.346 0.759-3.321 1.923-4.473 0.891l-0.42 0.303 7.253 13.086 5.314-0.714-4e-3 -0.44m-26.091-45.192c2.803-3.956 3.286-9.928-1.33-13.192-2.047-1.455-4.299-2.02-6.5-1.643-2.312 0.398-4.432 1.819-5.98 4.005-1.302 1.84-2.029 4.192-1.96 6.493 0.08 2.553 1.143 5.055 3.5 6.724 1.997 1.415 4.189 1.96 6.353 1.592 2.276-0.388 4.379-1.799 5.917-3.979m4.243 2.127c-1.957 2.778-4.867 4.623-8.178 5.186-3.521 0.607-7.285-0.285-10.32-2.433-3.058-2.157-5.149-5.383-5.735-8.855-0.56-3.235 0.21-6.538 2.166-9.297 1.909-2.696 4.807-4.471 8.172-5.003 3.626-0.58 7.31 0.354 10.368 2.627 2.997 2.101 4.979 5.149 5.57 8.572 0.568 3.267-0.153 6.537-2.043 9.203zm15.552 19.26c3.669-3.171 5.581-8.844 1.879-13.132-1.642-1.897-3.689-2.995-5.922-3.162-2.329-0.165-4.729 0.706-6.761 2.459-1.702 1.475-2.969 3.578-3.459 5.829-0.542 2.502-0.114 5.182 1.776 7.369 1.599 1.85 3.6 2.917 5.781 3.073 2.306 0.173 4.691-0.696 6.706-2.436m3.61 3.079c-2.571 2.223-5.838 3.315-9.194 3.067-3.562-0.26-6.999-2.025-9.423-4.845-2.448-2.832-3.704-6.46-3.45-9.972 0.246-3.276 1.786-6.293 4.342-8.5 2.504-2.161 5.74-3.189 9.141-2.897 3.661 0.309 7.011 2.104 9.422 5.039 2.415 2.771 3.605 6.203 3.355 9.665-0.232 3.312-1.721 6.31-4.193 8.443zm21.256 37.917c-3.711 0.627-4.772 4.607-5.709 8.112-0.781 2.898-1.509 5.636-3.563 5.983-2.785 0.467-3.521-3.064-3.646-3.779-0.337-1.981 0.15-4.217 1.235-5.707l0.441-0.593-4.947 0.837-0.032 0.216c-0.234 1.763-0.203 3.616 0.113 5.498 0.545 3.233 1.919 5.842 3.773 7.162 1.241 0.871 2.667 1.185 4.234 0.921 4.23-0.718 5.26-4.691 6.163-8.194 0.78-3.019 1.454-5.619 3.81-6.014 2.217-0.372 3.862 2.196 4.188 4.192 0.455 2.659-0.141 5.667-1.58 8.047l-0.479 0.781 5.256-2.192 0.028-0.156c0.39-2.07 0.382-4.299-0.017-6.621-0.504-3.028-2.048-5.65-4.22-7.19-1.58-1.121-3.373-1.582-5.048-1.303m3.403 32.41c-3.753-0.354-5.801 3.219-7.607 6.37-1.496 2.597-2.902 5.057-4.976 4.866-2.811-0.267-2.625-3.876-2.559-4.59 0.18-2 1.225-4.042 2.663-5.192l0.578-0.467-4.998-0.462-0.078 0.202c-0.697 1.649-1.133 3.442-1.301 5.339-0.314 3.268 0.347 6.146 1.805 7.893 0.963 1.167 2.265 1.834 3.845 1.984 4.274 0.395 6.29-3.182 8.068-6.34 1.529-2.708 2.847-5.051 5.234-4.833 2.223 0.211 3.157 3.121 2.966 5.134-0.249 2.687-1.596 5.434-3.597 7.363l-0.662 0.635 5.623-0.767 0.074-0.145c0.906-1.9 1.481-4.058 1.696-6.4 0.287-3.053-0.53-5.982-2.232-8.035-1.237-1.49-2.85-2.4-4.542-2.555m-196.39 101.02c2.34-2.951 0.47-6.613-1.176-9.853-1.361-2.672-2.646-5.194-1.354-6.823 1.762-2.214 4.674-0.083 5.236 0.36 1.577 1.254 2.712 3.246 2.9 5.081l0.072 0.733 3.121-3.932-0.123-0.182c-1.005-1.471-2.271-2.825-3.77-4.004-2.561-2.042-5.33-3.064-7.591-2.804-1.501 0.172-2.774 0.89-3.762 2.136-2.666 3.36-0.774 7.005 0.89 10.221 1.436 2.76 2.681 5.146 1.191 7.018-1.389 1.75-4.336 0.945-5.925-0.315-2.107-1.678-3.679-4.312-4.189-7.046l-0.176-0.897-2.436 5.137 0.081 0.138c1.095 1.793 2.591 3.459 4.438 4.907 2.405 1.916 5.302 2.837 7.945 2.534 1.929-0.221 3.572-1.077 4.628-2.409m70.787 21.711c0.264-3.756-3.349-5.729-6.535-7.465-2.638-1.427-5.122-2.783-4.982-4.868 0.207-2.816 3.822-2.702 4.54-2.652 2.004 0.138 4.061 1.138 5.255 2.549l0.483 0.56 0.339-5-0.2-0.086c-1.659-0.647-3.462-1.047-5.365-1.179-3.271-0.231-6.135 0.493-7.852 1.982-1.146 0.994-1.789 2.305-1.897 3.891-0.305 4.281 3.327 6.218 6.515 7.925 2.746 1.467 5.112 2.736 4.945 5.117-0.156 2.235-3.038 3.232-5.063 3.091-2.687-0.197-5.47-1.476-7.444-3.439l-0.65-0.649 0.896 5.62 0.148 0.063c1.925 0.868 4.079 1.386 6.431 1.545 3.067 0.224 5.967-0.658 7.99-2.408 1.468-1.27 2.326-2.904 2.446-4.597m111.36-103.4c-1.859-0.557-3.757-1.075-4.22-2.941l-0.521-0.063-1.317 6.097 0.521 0.288c1.401-1.335 2.709-0.903 4.527-0.367 0.099 0.029 12.331 3.67 12.331 3.67s-17.752 7.104-17.919 7.167c-1.482 0.556-2.853 0.825-2.853 0.825l-2.011 5.083 0.423 0.251c1.273-1.258 3.262-0.693 5.131-0.131l13.694 4.292c1.867 0.553 3.148 0.888 3.411 2.785l0.495 0.044 2.195-5.9-0.423-0.246c-1.439 1.325-2.842 0.839-4.667 0.297 0 0-11.101-3.528-12.556-3.957 1.462-0.583 17.677-7.037 17.677-7.037 2.286-0.885 3.998-2.032 5.429-4.446l-19.347-5.711m-223.3-3.035c1.938-0.146 3.893-0.335 5 1.239l0.512-0.125-0.951-6.164-0.586-0.083c-0.84 1.747-2.211 1.81-4.102 1.957-0.097 3e-3 -12.827 0.966-12.827 0.966s14.055-12.969 14.19-13.088c1.185-1.041 2.367-1.782 2.367-1.782l0.066-5.464-0.479-0.081c-0.746 1.623-2.806 1.802-4.754 1.949l-14.32 0.87c-1.945 0.147-3.258 0.291-4.184-1.39l-0.476 0.143 0.06 6.284 0.476 0.081c0.875-1.753 2.352-1.79 4.249-1.935 0 0 11.627-0.665 13.142-0.78-1.153 1.072-14.007 12.875-14.007 12.875-1.813 1.634-3.004 3.322-3.474 6.086l20.098-1.558m229.02 32.095l-0.373 0.203c0.567 2.393 0.031 4.62-1.184 6.463 0 0-2.414 3.731-2.812 4.324-0.431-0.23-6.598-3.57-7.067-3.825 0.222-0.41 1.602-3.123 1.602-3.123 0.54-1 1.21-2.559 2.5-2.819l0.09-0.41-3.621-1.917s-0.158 1.113-0.527 1.744c-0.031 0-2.756 5.054-2.756 5.054l-5.362-2.897 1.8-4.218c0.692-1.58 1.875-3.002 3.364-3.392l0.077-0.49-3.968-2.172s-0.113 1.009-0.622 2.038l-6.305 11.507 0.426 0.29c1.188-1.029 3.158 0.125 4.494 0.871l12.743 6.895c1.352 0.721 3.393 1.725 3.151 3.255l0.483 0.213 7.364-13.846-3.497-3.748m-79.3 63.15c0.68-0.254 5.14-1.903 5.805-2.151-0.484-0.548-4.814-5.434-5.638-6.359-0.026 1.235-0.154 7.78-0.167 8.51m19.287 5.162l-6.954 3.104-0.213-0.46c0.742-1.06 0.482-1.73-0.631-2.975l-3.746-4.275-8.097 3.001 0.013 5.184c0.033 2.352 0.274 2.684 1.627 2.99l0.129 0.472-6.376 1.766-0.197-0.458c1.182-1.208 1.286-1.842 1.464-4.71 0 0 0.445-16.83 0.433-16.845-0.015-2.684-1.367-2.693-1.367-2.693l-0.042-0.528 5.42-1.931 13.897 15.217c1.715 1.766 2.644 2.616 4.554 2.66l0.086 0.481zm-155.64-74.95l-0.518 0.103c-0.018 1.878-2.301 2.041-5.421 2.061 0 0-11.851 0.084-13.271 0.1 1.084-0.962 12.097-10.62 12.097-10.62 0.644-0.571 2.011-1.525 3.07-1.863 3e-3 0-1.732-5.575-1.732-5.575l-0.482 0.05c-0.314 1.351-2.148 2.859-3.396 3.936l-12.384 10.933c-2.113 1.864-2.313 2.819-2.79 5.131l-0.248 1.204 27.701-0.093-2.626-5.367m208.35-85.628l5.439 2.514 2.521-5.449-5.45-2.508-2.51 5.443m-219.39 9e-3l-2.489-5.449-5.451 2.496 2.483 5.453 5.457-2.5m162.36-58.312c1.205 4.645 1.93 6.247 3.534 7.596l-0.295 0.435-2.402-1.279c-2.214-1.468-3.857-3.156-4.481-5.55l-2.994-13.623 8.47-3.851c3.318-1.568 2.578-3.205 2.265-3.552l0.267-0.446 6.039 3.08-13.035 6.373 2.632 10.817m-10.26-5.603c-0.687 1.473-1.586 3.433-0.477 4.527l-0.27 0.426-6.473-2.486 0.166-0.467c1.672 0.091 2.525-2.248 3.174-3.75l5.901-13.217c0.634-1.39 1.486-3.183 0.373-4.281l0.275-0.43 6.413 2.546-0.141 0.475c-1.556-0.128-2.433 2.012-3.05 3.421l-5.891 13.236zm-98.961 13.198c-1.931 0.833-3.693 0.752-8.375-0.26 0 0-9.449-2.214-9.47-2.214 0.891-1.311 2.678-5.296 0.024-8.276-2.457-2.756-6.308-2.774-9.93 0.229l-6.422 5.638 0.251 0.432c1.452-0.507 2.756 1.058 3.764 2.299l9.341 11.248c0.984 1.146 2.574 3.054 1.793 4.362l0.407 0.282 5.275-4.739-0.257-0.417c-1.449 0.539-2.963-0.991-3.986-2.248l-10.41-12.54 1.498-1.566c1.066-1.044 3.828-2.035 5.679 0.072 2.25 2.58-0.039 5.913-1.585 7.645l13.459 3.587c2.415 0.521 4.657-0.188 6.968-1.501l2.22-1.574-0.244-0.459m24.029 207.73c0.702 0.167 5.331 1.28 6.026 1.442-0.096-0.728-0.979-7.196-1.15-8.421-0.708 1.012-4.449 6.38-4.876 6.979m13.154 15.023l-7.507-1.288 0.089-0.505c1.2-0.464 1.352-1.17 1.128-2.825l-0.74-5.636-8.389-2.011-2.878 4.314c-1.279 1.975-1.26 2.386-0.32 3.393l-0.147 0.458-6.277-2.079 0.095-0.487c1.643-0.348 2.081-0.821 3.831-3.101 0 0 9.73-13.731 9.73-13.764 1.481-2.238 0.364-2.995 0.364-2.995l0.261-0.46 5.572 1.412 3.088 20.379c0.437 2.418 0.728 3.644 2.301 4.738l-0.201 0.457zm-29.203-8.296c-1.172-1.586-0.595-2.879 0.176-4.693 0 0 6.093-14.368 6.316-14.905 0.458 0.194 2.699 1.145 2.699 1.145 1.481 0.631 2.34 1.395 2.314 2.298l0.452 0.15 2.979-3.815s-1.164-0.012-2.164-0.407c-1.017-0.392-12.465-5.242-13.158-5.58-0.692-0.323-1.38-1.078-1.38-1.078l-3.034 3.693 0.222 0.383s1.881-0.551 4.512 0.437l2.638 1.116-6.319 14.907c-0.542 1.333-1.323 3.277-2.69 3.428-0.089 6e-3 -0.242 0.04-0.33 0.034l-0.098 0.515 6.564 2.8 0.301-0.428m-16.014-7.589c-0.841-1.132 0.123-2.879 1.041-4.384l7.42-12.514c0.868-1.424 1.871-3.33 3.36-3.045l0.213-0.474-5.856-3.477-0.333 0.378c0.958 1.208-0.26 3.102-1.041 4.446l-7.391 12.456c-0.775 1.332-1.882 3.324-3.39 3.063l-0.209 0.482 5.872 3.479 0.314-0.41m-25.214-16.585c-0.896-1.888-0.896-3.646-0.125-8.378 0 0 1.136-7.25 1.261-7.956 2.236 1.508 5.977 1.938 8.3-0.198 2.721-2.499 2.589-6.394-0.521-9.914l-5.425-6.57-0.424 0.273c0.55 1.43-0.979 2.785-2.198 3.83l-11.769 9.488c-1.401 1.043-2.658 2.1-3.992 1.361l-0.269 0.417 4.416 5.325 0.422-0.213c-0.577-1.436 0.784-2.491 2.28-3.733l12.833-10.41 1.413 1.562c1.167 1.281 2.331 3.8 0.095 5.673-2.629 2.211-5.843 0.174-7.567-1.265l-0.23-0.181-2.301 12.119c-0.392 2.433 0.389 4.644 1.756 6.899l1.602 2.145 0.443-0.274m-14.022-24.091l3e-3 -0.424c-2.343-0.74-3.974-2.333-4.949-4.318 0 0-1.975-3.976-2.28-4.622 0.43-0.254 6.442-3.848 6.902-4.129 0.237 0.407 1.859 2.979 1.859 2.979 0.586 0.981 1.586 2.342 1.157 3.58l0.297 0.292 3.5-2.139s-0.882-0.698-1.232-1.341c0.015-0.029-2.938-4.951-2.938-4.951l5.23-3.127 2.713 3.698c1.003 1.401 1.625 3.145 1.195 4.618l0.379 0.323 3.905-2.307s-0.816-0.602-1.443-1.568l-6.677-11.302-0.467 0.229c0.279 1.537-1.714 2.641-3.043 3.413l-12.432 7.427c-1.311 0.807-3.217 2.046-4.408 1.055l-0.434 0.306 8.153 13.413 5.01-1.105m-23.841-40.956c0.23-1.379 2.16-1.908 3.881-2.3l14.155-3.349c1.625-0.36 3.693-0.975 4.519 0.302l0.502-0.173-1.574-6.634-0.502 0.034c-0.197 1.525-2.412 1.959-3.929 2.327l-14.09 3.339c-1.492 0.38-3.7 0.96-4.556-0.311l-0.488 0.188 1.574 6.636 0.508-0.059m-0.284-60.571c-1.853 1.277-3.142 3.569-3.527 6.285-0.079 0.526-0.118 1.098-0.118 1.686 9e-3 1.845 0.563 3.82 1.772 5.356-0.673-0.096-2.043-0.291-2.043-0.291l-0.452 5.532 0.556 0.169c0.743-1.374 2.594-1.031 4.108-0.8l14.329 2.044c1.535 0.208 4.249 0.452 4.581 1.986l0.475-0.026 0.563-6.748-0.515-0.154c-0.736 1.335-2.957 0.973-4.464 0.74l-11.173-1.599c-1.338-0.188-2.11-0.298-2.959-1.126-1.333-1.257-1.954-3.229-1.66-5.288 0.232-1.598 0.847-2.786 1.848-3.537 1.234-0.921 3.107-1.218 5.554-0.871l9.958 1.421c1.514 0.198 3.76 0.47 4.099 1.963l0.521-3e-3 1.46-6.636-0.426-0.137c-0.708 1.248-3.233 0.888-4.996 0.614l-10.018-1.436c-2.766-0.398-5.13-0.742-7.473 0.856m97.698 89.113h-0.098c-2.227 2.762-5.491 4.231-8.958 5.254v0.11l3.261 0.856v11.253c0 2.001-0.051 3.415-1.96 4.6v0.095h9.437v-0.095c-1.779-0.874-1.681-2.75-1.681-4.433v-17.64m23.623 0c-4.274 0-8.02 1.379-10.847 3.722-3.038 2.499-4.743 5.728-4.743 9.657 0 5.416 3.258 9.216 8.848 9.216 4.675 0 8.383-3.019 8.383-7.826 0-3.948-2.594-7.078-6.702-7.078l-1.126 0.063-2.411 3.281h0.103c0.364-0.214 0.867-0.328 1.364-0.328 2.369 0 3.058 2.516 3.058 4.419 0 1.621-0.426 4.221-2.567 4.221-2.597 0-3.118-3.695-3.118-5.619 0-5.795 2.923-9.493 8.524-11.007l1.234-2.721m10.699 11.705h1.552c1.296 0 2.553 0.072 3.636 0.862 0.874 0.691 1.319 1.658 1.319 2.771 0 2.417-1.953 4.048-4.312 4.048-1.693 0-3.635-0.57-5.113-1.392l0.925 3.992c1.643 0.392 3.316 0.607 5.003 0.607 4.389 0 9.826-2.063 9.826-7.224 0-3.039-2.148-5.134-5-5.766 2.095-0.559 3.663-2.309 3.663-4.514 0-1.751-1.22-3.185-2.655-4.006-1.394-0.755-3.139-1.084-4.704-1.084-1.815 0-3.669 0.309-5.425 0.775l-1.076 3.692c1.298-0.664 3.029-1.355 4.485-1.355 1.639 0 3.194 0.759 3.194 2.65 0 2.655-2.549 3.022-4.609 3.022h-0.709v2.922m20.809-10.621l-1.376 4.512c1.47-1.093 3.321-2.188 5.246-2.188 1.273 0 2.317 0.799 2.317 2.188 0 1.191-0.818 2.69-1.383 3.713l-2.541 4.601-5.007 8.259h15.538l1.526-4.763c-2.025 0.997-3.621 1.589-5.861 1.589-0.884 0-1.745-0.068-2.595-0.272l0.392-0.595 3.862-6.062c1.072-1.928 2.557-4.375 2.557-6.601 0-3.631-3.687-5.464-6.877-5.464-1.907-1e-3 -4.007 0.359-5.798 1.083m-82.119-115.08h114.37l-57.187-27.234-57.185 27.234m-2.728 10.889h119.82v-5.443h-119.82v5.443zm0 95.317h32.681v-16.34h-32.681v16.34zm87.145 0h32.68v-16.34h-32.68v16.34zm-43.577 0h10.903v-16.34h-10.903v16.34zm21.793 0h10.896v-16.34h-10.896v16.34zm-55.824-89.875h-8.175l-1.361 68.088h10.897l-1.361-68.088m21.79 0h-8.182l-1.361 68.088h10.897l-1.354-68.088m21.775 0h-8.166l-1.367 68.088h10.903l-1.37-68.088m21.792 0h-8.175l-1.357 68.088h10.896l-1.364-68.088m21.791 0h-8.169l-1.37 68.088h10.897l-1.358-68.088m21.783 0h-8.178l-1.351 68.088h10.886l-1.357-68.088m-58.554-57.181l-59.914 28.592v6.804l59.914-28.596 59.911 28.596v-6.804l-59.911-28.592" fill="#E4E9EE"/>
</svg>
